<?xml version="1.0" encoding="utf-8"?>
<!-- Generator: Adobe Illustrator 23.0.2, SVG Export Plug-In . SVG Version: 6.00 Build 0)  -->
<svg version="1.1" id="Layer_1" xmlns="http://www.w3.org/2000/svg" xmlns:xlink="http://www.w3.org/1999/xlink" x="0px" y="0px"
	 viewBox="0 0 777 229" style="enable-background:new 0 0 777 229;" xml:space="preserve">
<style type="text/css">
	.st0{fill:#FFFFFF;}
	.st1{fill:#00FFFF;}
	.st2{fill:url(#SVGID_1_);}
</style>
<g>
	<g>
		<path class="st0" d="M246.44,53.7h10.69c0.52,0,1.01,0.26,1.29,0.7l23.35,35.69c0.61,0.93,1.98,0.93,2.59,0l23.21-35.68
			c0.29-0.44,0.77-0.7,1.3-0.7h10.69c1.23,0,1.97,1.37,1.29,2.4l-30.08,45.39c-0.34,0.52-0.34,1.19,0,1.71l31.35,47.1
			c0.68,1.03-0.05,2.4-1.29,2.4h-10.83c-0.52,0-1.01-0.26-1.3-0.7l-24.36-37.4c-0.61-0.93-1.98-0.94-2.59,0L257.28,152
			c-0.29,0.44-0.77,0.7-1.29,0.7h-10.83c-1.23,0-1.97-1.37-1.29-2.4l31.35-47.1c0.34-0.52,0.35-1.19,0-1.71L245.15,56.1
			C244.47,55.07,245.2,53.7,246.44,53.7z"/>
		<path class="st0" d="M357.69,154.41c-20.26,0-36.8-17.12-36.8-38.37s16.55-38.66,36.8-38.66c15.6,0,27.98,8.78,33.45,22.4
			c0.41,1.02-0.35,2.14-1.45,2.14h-9.82c-0.57,0-1.09-0.32-1.36-0.82c-4.22-7.54-11.59-12.59-20.82-12.59
			c-13.55,0-24.68,12.41-24.68,27.53c0,15.12,11.13,27.25,24.68,27.25c9.36,0,16.73-5.05,20.82-12.58c0.28-0.51,0.8-0.83,1.37-0.83
			h9.82c1.1,0,1.86,1.11,1.46,2.13C385.8,145.63,373.29,154.41,357.69,154.41z"/>
		<path class="st0" d="M460.93,152.7h-8.96c-0.83,0-1.51-0.68-1.51-1.51v-43.14c0-11.41-6.13-19.54-17.97-19.54
			c-11.13,0-19.26,8.27-19.26,19.26v43.42c0,0.83-0.68,1.51-1.51,1.51h-9.1c-0.83,0-1.51-0.68-1.51-1.51V48.08
			c0-0.83,0.68-1.51,1.51-1.51h9.1c0.83,0,1.51,0.68,1.51,1.51V83c0,1.29,1.52,2,2.49,1.15c4.8-4.23,11.13-6.77,18.48-6.77
			c17.97,0,28.24,12.84,28.24,31.1v42.71C462.44,152.02,461.76,152.7,460.93,152.7z"/>
		<path class="st0" d="M525.86,147.52c-0.19-1.19-1.65-1.71-2.53-0.89c-5.33,4.97-13.1,7.78-23.04,7.78
			c-15.12,0-28.67-6.85-28.67-22.68c0-15.12,10.98-21.97,29.96-22.97c17.97-0.86,23.82-4.14,23.82-9.99
			c0-5.85-5.56-10.27-17.97-10.27c-7.4,0-17.03,2.24-18.92,11.89c-0.14,0.72-0.77,1.24-1.5,1.24h-9.57c-0.92,0-1.64-0.81-1.52-1.72
			c1.67-13.71,13.57-22.53,31.66-22.53c19.68,0,29.67,9.13,29.67,22.82l0,41.98c0,3.08,0.78,6.06,1.62,9.02
			c0.21,0.75-0.35,1.49-1.13,1.49l-9.32,0c-0.63,0-1.2-0.38-1.43-0.97C526.5,150.5,526.12,149.09,525.86,147.52z M525.4,116.14
			c0-1.18-1.27-1.91-2.29-1.32c-5.03,2.92-12.5,3.73-19.96,4.22c-15.98,1-19.54,6.56-19.54,12.7c0,7.99,7.7,11.41,17.12,11.41
			c12.55,0,24.39-5.42,24.68-18.69V116.14z"/>
		<path class="st0" d="M608.53,152.7h-8.93c-0.84,0-1.53-0.68-1.53-1.53v-43.12c0-11.27-6.28-19.54-17.97-19.54
			c-11.13,0-19.26,8.27-19.26,19.26v43.41c0,0.84-0.68,1.53-1.53,1.53h-9.07c-0.84,0-1.53-0.68-1.53-1.53V80.76
			c0-0.84,0.68-1.53,1.53-1.53h8.64c0.84,0,1.53,0.68,1.53,1.53v2.61c0,1.32,1.57,2.03,2.54,1.13c4.86-4.5,11.4-7.13,18.85-7.13
			c17.97,0,28.24,12.84,28.24,31.1v42.69C610.06,152.01,609.37,152.7,608.53,152.7z"/>
		<path class="st0" d="M770.1,129.87c1.09,0,1.84,1.1,1.45,2.11c-5.54,14.37-17.71,22.42-33.91,22.42
			c-21.11,0-37.66-16.83-37.66-38.37c0-21.25,16.55-38.66,36.95-38.66c18.59,0,36.5,15.07,37.07,40.23
			c0.02,0.86-0.69,1.56-1.55,1.56h-58.43c-0.95,0-1.68,0.86-1.53,1.8c2.27,14.17,13.51,22.45,25.15,22.45
			c10.06,0,17.32-4.66,21.4-12.68c0.27-0.53,0.8-0.87,1.39-0.87H770.1z M758.54,108.33c1.05,0,1.81-1.02,1.48-2.01
			c-3.56-10.86-13.01-17.96-23.1-17.96c-9.57,0-19.65,6.63-23.38,17.95c-0.33,0.99,0.43,2.02,1.48,2.02H758.54z"/>
		<path class="st0" d="M693.13,116.18c0,21.11-15.98,38.23-36.95,38.23c-20.83,0-36.95-17.12-36.95-38.23
			c0-21.4,16.12-38.8,36.95-38.8C677.15,77.38,693.13,94.78,693.13,116.18z M681,116.18c0-15.26-11.13-27.67-24.82-27.67
			c-13.55,0-24.68,12.41-24.68,27.67c0,14.98,11.13,27.1,24.68,27.1C669.88,143.28,681,131.16,681,116.18z"/>
		<path class="st0" d="M681.41,159.8c-0.63,0-1.18,0.39-1.42,0.97c-3.67,8.96-12.78,15.32-23.41,15.32
			c-10.63,0-19.74-6.36-23.41-15.32c-0.24-0.58-0.79-0.97-1.42-0.97h-9.63c-1.02,0-1.76,0.99-1.46,1.97
			c4.53,14.54,18.89,25.18,35.92,25.18c17.03,0,31.39-10.63,35.92-25.18c0.3-0.98-0.43-1.97-1.46-1.97H681.41z"/>
	</g>
	<g>
		<g>
			<path class="st0" d="M127.68,165.82V167h-2.23v6.74h-1.25V167h-2.27v-1.18H127.68z M136.49,173.74h-1.25v-5.72l-2.11,5.72h-1.27
				l-2.09-5.72v5.72h-1.27v-7.92h1.69l2.31,6.38l2.33-6.38h1.67V173.74z"/>
		</g>
		<g>
			<g>
				<path class="st1" d="M168.35,19.89c-1.33-0.81-3.12-0.47-3.99,0.87c-1.62,2.54-4.39,4.05-7.4,4.05c-4.8,0-8.79-3.99-8.79-8.79
					c0-4.86,3.99-8.79,8.79-8.79c3.18,0,6.07,1.67,7.63,4.39c0.81,1.33,2.54,1.79,3.93,1.04c1.33-0.81,1.85-2.54,1.04-3.93
					c-2.6-4.45-7.4-7.23-12.61-7.23c-7.98,0-14.45,6.48-14.45,14.51c0,7.98,6.47,14.51,14.45,14.51c4.98,0,9.54-2.48,12.2-6.65
					C170.03,22.55,169.68,20.76,168.35,19.89z"/>
				<path class="st1" d="M134.53,15.96l7.63-9.89c0.98-1.27,0.75-3.07-0.52-4.05c-1.22-0.98-3.01-0.75-3.99,0.52l-6.76,8.73
					l-6.76-8.73c-0.98-1.27-2.78-1.5-3.99-0.52c-1.27,0.98-1.5,2.78-0.52,4.05l7.63,9.89l-7.63,9.89c-0.98,1.27-0.75,3.06,0.52,3.99
					c0.52,0.4,1.1,0.63,1.73,0.63c0.87,0,1.68-0.41,2.26-1.1l6.76-8.73l6.76,8.73c0.58,0.69,1.39,1.1,2.26,1.1
					c0.63,0,1.21-0.23,1.73-0.63c1.27-0.93,1.5-2.72,0.52-3.99L134.53,15.96z"/>
			</g>
			<linearGradient id="SVGID_1_" gradientUnits="userSpaceOnUse" x1="86.9825" y1="226.5223" x2="86.9825" y2="1.4176">
				<stop  offset="0.2" style="stop-color:#A732FF"/>
				<stop  offset="0.95" style="stop-color:#00FFFF"/>
			</linearGradient>
			<path class="st2" d="M54.54,177.6c-0.16,0.07-0.33,0.11-0.52,0.11c-0.63,0-1.16-0.45-1.29-1.05V58.76
				c0.12-0.6,0.65-1.05,1.29-1.05c0.18,0,0.35,0.04,0.5,0.1l0.42,0.27l58.89,38.83c0.18,0.19,0.3,0.44,0.3,0.72
				c0,0.38-0.22,0.71-0.53,0.88l-0.09,0.06L66.6,129.51c-0.95,0.63-1.52,1.69-1.52,2.83v13.19c0,1.03,0.84,1.87,1.87,1.87
				c0.36,0,0.72-0.11,1.03-0.31l65.11-42.93c1.76-1.16,3-2.93,3.41-4.86c0.68-3.16-0.62-6.35-3.3-8.12L49.26,35.86
				c-1.26-0.83-2.73-1.26-4.24-1.26c-1.28,0-2.54,0.32-3.66,0.92c-2.51,1.35-4.06,3.95-4.06,6.8v150.97c0,3,1.43,5.57,3.84,6.86
				c2.48,1.34,5.64,1.19,7.98-0.37l102.4-67.89c11.54-7.61,18.44-20.41,18.44-34.24c0-13.83-6.89-26.64-18.44-34.25L67.53,8.03
				C61.04,3.77,53,1.42,44.91,1.42c-6.87,0-13.55,1.65-19.32,4.78c-13.31,7.17-21.58,21-21.58,36.11v176.15
				c0,4.26,3.21,7.8,7.31,8.04c0.16,0.01,0.32,0.01,0.47,0.01c4.29,0,7.78-3.49,7.78-7.78V42.31c0-9.37,5.14-17.96,13.43-22.42
				c3.55-1.94,7.68-2.96,11.95-2.96c5.02,0,10,1.46,14.02,4.1l83.97,55.35c7.17,4.72,11.45,12.67,11.45,21.25
				c0,8.58-4.28,16.52-11.45,21.25l-88.01,58.45C54.81,177.45,54.68,177.54,54.54,177.6"/>
		</g>
	</g>
</g>
</svg>
